<svg version="1.1" xmlns="http://www.w3.org/2000/svg" xmlns:xlink="http://www.w3.org/1999/xlink" width="579.32422" height="408.00002" viewBox="0,0,579.32422,408.00002"><g transform="translate(80,33.62111)"><g data-paper-data="{&quot;isPaintingLayer&quot;:true}" fill-rule="nonzero" stroke-linecap="butt" stroke-linejoin="miter" stroke-miterlimit="10" stroke-dasharray="" stroke-dashoffset="0" style="mix-blend-mode: normal"><path d="M-12.67578,373.37892v-382h511v382z" fill="#006363" stroke="#000000" stroke-width="2"/><path d="M-12.67578,145.92058v-21.08333h298v21.08333z" fill="#006363" stroke="#000000" stroke-width="2"/><path d="M-13.67578,82.37892v-26h298v26z" fill="#006363" stroke="#000000" stroke-width="2"/><path d="M279.32422,82.37892v-115h25v115z" fill="#006363" stroke="#000000" stroke-width="2"/><path d="M279.32422,212.37892v-88h23v88z" fill="#006363" stroke="#000000" stroke-width="2"/><path d="M343.32422,270.3789v-303h34v303z" fill="#006363" stroke="#000000" stroke-width="2"/><path d="M221,296.37892v-26h158.32422v26z" fill="#006363" stroke="#000000" stroke-width="2"/><path d="M-79,224.37891v-26h381.32422v26z" fill="#006363" stroke="#000000" stroke-width="2"/><path d="M200,372.37891v-102h28.32422v102z" fill="#006363" stroke="#000000" stroke-width="2"/><path d="M121,372.37892v-102h28.32422v102z" fill="#006363" stroke="#000000" stroke-width="2"/><path d="M-22,295.3789v-26h172.32422v26z" fill="#006363" stroke="#000000" stroke-width="2"/><path d="M54.32422,246.87892c0,12.42641 -10.74517,22.5 -24,22.5c-13.25483,0 -24,-10.07359 -24,-22.5c0,-12.42641 10.74517,-22.5 24,-22.5c13.25483,0 24,10.07359 24,22.5z" fill="#006363" stroke="#25ff00" stroke-width="2"/><text transform="translate(71.32422,188.62891) scale(2.03846,2.03846)" font-size="40" xml:space="preserve" fill="#ffffff" fill-rule="nonzero" stroke="none" stroke-width="1" stroke-linecap="butt" stroke-linejoin="miter" stroke-miterlimit="10" stroke-dasharray="" stroke-dashoffset="0" font-family="Sans Serif" font-weight="normal" text-anchor="start" style="mix-blend-mode: normal"><tspan x="0" dy="0">You lose</tspan></text></g></g></svg>