<svg version="1.1" xmlns="http://www.w3.org/2000/svg" xmlns:xlink="http://www.w3.org/1999/xlink" width="579.32422" height="408.00003" viewBox="0,0,579.32422,408.00003"><g transform="translate(80,33.6211)"><g data-paper-data="{&quot;isPaintingLayer&quot;:true}" fill-rule="nonzero" stroke-width="2" stroke-linecap="butt" stroke-linejoin="miter" stroke-miterlimit="10" stroke-dasharray="" stroke-dashoffset="0" style="mix-blend-mode: normal"><path d="M-12.67578,373.37893v-382h511v382z" fill="#fff0ab" stroke="#000000"/><path d="M-12.67578,145.92059v-21.08333h298v21.08333z" fill="#c4b883" stroke="#000000"/><path d="M-13.67578,82.37892v-26h298v26z" fill="#c4b883" stroke="#000000"/><path d="M279.32422,82.37892v-115h25v115z" fill="#c4b883" stroke="#000000"/><path d="M279.32422,212.37892v-88h23v88z" fill="#c4b883" stroke="#000000"/><path d="M343.32422,270.3789v-303h34v303z" fill="#c4b883" stroke="#000000"/><path d="M221,296.37892v-26h158.32422v26z" fill="#c4b883" stroke="#000000"/><path d="M-79,224.37892v-26h381.32422v26z" fill="#c4b883" stroke="#000000"/><path d="M200,372.37892v-102h28.32422v102z" fill="#c4b883" stroke="#000000"/><path d="M121,372.37893v-102h28.32422v102z" fill="#c4b883" stroke="#000000"/><path d="M-22,295.3789v-26h172.32422v26z" fill="#c4b883" stroke="#000000"/><path d="M54.32422,246.87892c0,12.42641 -10.74517,22.5 -24,22.5c-13.25483,0 -24,-10.07359 -24,-22.5c0,-12.42641 10.74517,-22.5 24,-22.5c13.25483,0 24,10.07359 24,22.5z" fill="#f7ff00" stroke="#25ff00"/></g></g></svg>