<svg version="1.1" xmlns="http://www.w3.org/2000/svg" xmlns:xlink="http://www.w3.org/1999/xlink" width="28" height="27" viewBox="0,0,28,27"><g transform="translate(-226,-166.5)"><g data-paper-data="{&quot;isPaintingLayer&quot;:true}" fill-rule="nonzero" stroke-linecap="butt" stroke-linejoin="miter" stroke-miterlimit="10" stroke-dasharray="" stroke-dashoffset="0" style="mix-blend-mode: normal"><path d="M253,180c0,6.90356 -5.8203,12.5 -13,12.5c-7.1797,0 -13,-5.59644 -13,-12.5c0,-6.90356 5.8203,-12.5 13,-12.5c7.1797,0 13,5.59644 13,12.5z" fill="#f7ff00" stroke="#ecff00" stroke-width="2"/><path d="M232.0951,177.08144c0,-1.38071 1.11929,-2.5 2.5,-2.5c1.38071,0 2.5,1.11929 2.5,2.5c0,1.38071 -1.11929,2.5 -2.5,2.5c-1.38071,0 -2.5,-1.11929 -2.5,-2.5z" fill="#000000" stroke="none" stroke-width="0.5"/><path d="M242.93946,176.88427c0,-1.38071 1.11929,-2.5 2.5,-2.5c1.38071,0 2.5,1.11929 2.5,2.5c0,1.38071 -1.11929,2.5 -2.5,2.5c-1.38071,0 -2.5,-1.11929 -2.5,-2.5z" fill="#000000" stroke="none" stroke-width="0.5"/><path d="M242.27974,184.73571c2.14371,-0.14415 1.94344,-3.45048 4.34275,-3.45048c2.1671,0 3.30966,3.24809 1.99773,4.78481c-3.45964,4.05242 -8.72509,4.86442 -13.29139,2.21449c-0.81083,-0.47054 -4.52241,-1.97888 -4.14038,-3.37968c-0.0517,-0.20027 -0.0792,-0.41027 -0.0792,-0.6267c0,-1.38071 1.11929,-2.5 2.5,-2.5c0.70988,0 1.35066,0.29588 1.80574,0.77103c1.6255,0.60564 3.19674,2.43316 6.86475,2.18652z" fill="#000000" stroke="none" stroke-width="0.5"/></g></g></svg>