<svg version="1.1" xmlns="http://www.w3.org/2000/svg" xmlns:xlink="http://www.w3.org/1999/xlink" width="28" height="27" viewBox="0,0,28,27"><g transform="translate(-226,-166.5)"><g data-paper-data="{&quot;isPaintingLayer&quot;:true}" fill-rule="nonzero" stroke-linecap="butt" stroke-linejoin="miter" stroke-miterlimit="10" stroke-dasharray="" stroke-dashoffset="0" style="mix-blend-mode: normal"><path d="M253,180c0,6.90356 -5.8203,12.5 -13,12.5c-7.1797,0 -13,-5.59644 -13,-12.5c0,-6.90356 5.8203,-12.5 13,-12.5c7.1797,0 13,5.59644 13,12.5z" fill="#f7ff00" stroke="#ecff00" stroke-width="2"/><path d="M232.0951,177.08144c0,-1.38071 1.11929,-2.5 2.5,-2.5c1.38071,0 2.5,1.11929 2.5,2.5c0,1.38071 -1.11929,2.5 -2.5,2.5c-1.38071,0 -2.5,-1.11929 -2.5,-2.5z" fill="#000000" stroke="none" stroke-width="0.5"/><path d="M242.93946,176.88427c0,-1.38071 1.11929,-2.5 2.5,-2.5c1.38071,0 2.5,1.11929 2.5,2.5c0,1.38071 -1.11929,2.5 -2.5,2.5c-1.38071,0 -2.5,-1.11929 -2.5,-2.5z" fill="#000000" stroke="none" stroke-width="0.5"/><path d="M250.08347,190.10935c-1.80839,1.72619 -3.53458,-0.0822 -3.53458,-0.0822l-1.87095,-1.96005c-0.87583,-1.01485 -1.53031,-2.27436 -2.62749,-3.04455c-0.39304,-0.2759 -0.94962,0.14542 -1.42689,0.19848c-3.23866,0.36005 -4.52009,0.35171 -4.73472,3.83567c0,0 -0.24876,2.48759 -2.73635,2.23883c-2.48759,-0.24876 -2.23883,-2.73635 -2.23883,-2.73635c0.69893,-5.64481 3.66942,-8.23162 9.46084,-8.33195c1.21594,-0.02106 2.57915,-0.39083 3.64295,0.19848c1.74568,0.96703 2.85151,2.79267 4.27727,4.18901l1.87095,1.96005c0,0 1.72619,1.80839 -0.0822,3.53458z" fill="#000000" stroke="none" stroke-width="0.5"/></g></g></svg>